Coordinates
version=1
nRows=24
nColumns=24
inDegrees=yes

Units are S.I. units (second, meters, Newtons, ...)
Angles are in degrees.

endheader
time	pelvis_tilt	pelvis_list	pelvis_rotation	pelvis_tx	pelvis_ty	pelvis_tz	hip_flexion_r	hip_adduction_r	hip_rotation_r	knee_angle_r	ankle_angle_r	subtalar_angle_r	mtp_angle_r	hip_flexion_l	hip_adduction_l	hip_rotation_l	knee_angle_l	ankle_angle_l	subtalar_angle_l	mtp_angle_l	lumbar_extension	lumbar_bending	lumbar_rotation
      9.04000000	      8.32384318	     -2.47715364	     -0.20439193	      2.41619305	      0.94956918	     -0.18797737	     -3.89347957	      8.17581711	     -4.19992751	     -7.86269860	     11.26126037	      3.36959520	      0.00000000	      9.09529768	     -3.19276895	     -3.87549936	    -54.38261576	      3.07861519	    -11.34788585	      0.00000000	    -26.69670012	      2.82030263	     -1.56804325
      9.05000000	      8.21921524	     -2.34108422	     -0.42957529	      2.42381406	      0.94978947	     -0.18743748	     -4.40868387	      8.04979311	     -3.90377770	     -7.68627194	     11.61726502	      3.37955139	      0.00000000	      9.83375273	     -2.98837333	     -3.87315185	    -52.94042021	      3.68804433	    -11.00310359	      0.00000000	    -26.68609546	      2.52809440	     -1.21148210
      9.06000000	      8.11037423	     -2.23638191	     -0.62796291	      2.43143527	      0.94990657	     -0.18698828	     -4.91536308	      7.95130209	     -3.64158000	     -7.50853257	     11.93741595	      3.37038296	      0.00000000	     10.49834506	     -2.81991323	     -3.86744402	    -51.26259563	      4.26705624	    -10.61920665	      0.00000000	    -26.67378025	      2.28706867	     -0.87926446
      9.07000000	      7.97605433	     -2.15046771	     -0.80125250	      2.43906837	      0.94989018	     -0.18665227	     -5.38516146	      7.86423163	     -3.44049807	     -7.33961443	     12.25750643	      3.36531417	      0.00000000	     11.10635588	     -2.66728605	     -3.86221954	    -49.34512528	      4.74763191	    -10.33520414	      0.00000000	    -26.63122444	      2.08887578	     -0.58990963
      9.08000000	      7.85507549	     -2.11229798	     -0.94597522	      2.44670448	      0.94978104	     -0.18641369	     -5.86630012	      7.82588207	     -3.22549792	     -7.17587591	     12.56588783	      3.36927304	      0.00000000	     11.61836698	     -2.55841320	     -3.82940318	    -47.21208913	      5.17805049	     -9.98862460	      0.00000000	    -26.61089697	      1.96376203	     -0.27368111
      9.09000000	      7.70234559	     -2.10199204	     -1.06595432	      2.45438287	      0.94951435	     -0.18626939	     -6.30828883	      7.81267096	     -3.07463423	     -7.01821875	     12.88378090	      3.37353172	      0.00000000	     12.07713262	     -2.47660689	     -3.80232127	    -44.86099797	      5.52192858	     -9.74146533	      0.00000000	    -26.53835780	      1.88082374	     -0.00737015
      9.10000000	      7.55069625	     -2.12840241	     -1.16660804	      2.46209807	      0.94913543	     -0.18622433	     -6.75462085	      7.83451437	     -2.93345377	     -6.85887652	     13.21035953	      3.39260062	      0.00000000	     12.44772318	     -2.42535223	     -3.76623765	    -42.31003812	      5.79203140	     -9.46528904	      0.00000000	    -26.46315966	      1.86181783	      0.26129998
      9.11000000	      7.40040324	     -2.18871388	     -1.24928594	      2.46987434	      0.94864451	     -0.18626201	     -7.21146026	      7.88950697	     -2.80360734	     -6.69024726	     13.54614980	      3.41896178	      0.00000000	     12.72879120	     -2.40340141	     -3.72422252	    -39.57301154	      5.98283308	     -9.12127772	      0.00000000	    -26.37792006	      1.89657031	      0.52521373
      9.12000000	      7.26084031	     -2.28264526	     -1.31981792	      2.47772592	      0.94805792	     -0.18636954	     -7.69216768	      7.97618037	     -2.67559015	     -6.51127582	     13.89007109	      3.45376085	      0.00000000	     12.91161746	     -2.41002835	     -3.67563733	    -36.66879491	      6.09343805	     -8.65023220	      0.00000000	    -26.29266136	      1.98296883	      0.79041710
      9.13000000	      7.14632511	     -2.41800803	     -1.38215521	      2.48565764	      0.94739779	     -0.18652859	     -8.21089388	      8.10204170	     -2.54326339	     -6.32776985	     14.22051108	      3.50335572	      0.00000000	     12.98552878	     -2.45113217	     -3.60254156	    -33.62470423	      6.14835743	     -7.98274341	      0.00000000	    -26.22843158	      2.12363724	      1.06936915
      9.14000000	      7.02208439	     -2.57468271	     -1.44636755	      2.49369528	      0.94662087	     -0.18671579	     -8.73356075	      8.24538911	     -2.40511320	     -6.13334208	     14.56115308	      3.54787654	      0.00000000	     12.99238803	     -2.50992447	     -3.52104237	    -30.46420909	      6.11834810	     -7.15386977	      0.00000000	    -26.12952257	      2.28908887	      1.35303059
      9.15000000	      6.91131595	     -2.75732742	     -1.51576176	      2.50183835	      0.94576180	     -0.18691772	     -9.28555112	      8.40965679	     -2.25129281	     -5.92885501	     14.90093975	      3.59575040	      0.00000000	     12.91397078	     -2.59203000	     -3.42426816	    -27.21886484	      6.00218934	     -6.17932276	      0.00000000	    -26.02817738	      2.47904811	      1.65611960
      9.16000000	      6.81146862	     -2.97191823	     -1.59494017	      2.51005938	      0.94482349	     -0.18714312	     -9.85176212	      8.59875331	     -2.07938606	     -5.73735397	     15.21501547	      3.64814922	      0.00000000	     12.76298158	     -2.70076162	     -3.28965246	    -23.92370166	      5.80814185	     -5.11212451	      0.00000000	    -25.93486235	      2.70968753	      1.98519146
      9.17000000	      6.72819704	     -3.21089224	     -1.68936448	      2.51835072	      0.94381777	     -0.18736656	    -10.43509935	      8.80391182	     -1.88556300	     -5.56437625	     15.51238079	      3.69903107	      0.00000000	     12.54545907	     -2.83764687	     -3.14357947	    -20.61970518	      5.53308516	     -4.02557315	      0.00000000	    -25.85605458	      2.95590409	      2.33585578
      9.18000000	      6.61905027	     -3.47008824	     -1.79236644	      2.52669847	      0.94269617	     -0.18760853	    -10.98224217	      9.02311676	     -1.68225388	     -5.42074373	     15.82894644	      3.74509356	      0.00000000	     12.32264302	     -2.99898737	     -2.98676050	    -17.34400157	      5.08234634	     -3.07276888	      0.00000000	    -25.74030416	      3.22650334	      2.68849573
      9.19000000	      6.56626091	     -3.75787720	     -1.91839237	      2.53510070	      0.94158370	     -0.18784262	    -11.59266865	      9.25907275	     -1.44920717	     -5.29019179	     16.09574196	      3.81500949	      0.00000000	     12.00760454	     -3.20351178	     -2.89053850	    -14.13922747	      4.64422516	     -2.18488653	      0.00000000	    -25.69841201	      3.51905944	      3.09067565
      9.20000000	      6.50966642	     -4.06080959	     -2.05084751	      2.54353979	      0.94040859	     -0.18809753	    -12.18761857	      9.50242868	     -1.21771144	     -5.19244916	     16.34598531	      3.88141094	      0.00000000	     11.69077660	     -3.43629246	     -2.89508635	    -11.06310627	      4.14304376	     -1.41330379	      0.00000000	    -25.65531325	      3.82298388	      3.48560600
      9.21000000	      6.46837336	     -4.35713673	     -2.18703348	      2.55201569	      0.93921756	     -0.18838995	    -12.78304908	      9.72964891	     -0.98730683	     -5.13551496	     16.58250416	      3.95235359	      0.00000000	     11.36159274	     -3.66754715	     -3.06218803	     -8.15977304	      3.63536424	     -0.72903993	      0.00000000	    -25.63667119	      4.12062356	      3.86747411
      9.22000000	      6.46627352	     -4.62434921	     -2.32614003	      2.56054642	      0.93806446	     -0.18872707	    -13.41332188	      9.91532103	     -0.76627423	     -5.10004632	     16.81872571	      4.02602928	      0.00000000	     11.01036750	     -3.86586210	     -3.47795027	     -5.48250113	      3.18684506	     -0.02097372	      0.00000000	    -25.66767441	      4.37688280	      4.22890983
      9.23000000	      6.48644946	     -4.89357302	     -2.42647756	      2.56910307	      0.93694552	     -0.18918581	    -14.05241845	     10.10177629	     -0.58960098	     -5.09291880	     17.07570472	      4.11091645	      0.00000000	     10.72079102	     -4.04968437	     -4.32351643	     -3.14926565	      2.85838432	      0.93933728	      0.00000000	    -25.73218038	      4.67092354	      4.53967824
      9.24000000	      6.48244890	     -5.11850290	     -2.54148954	      2.57769511	      0.93583030	     -0.18969715	    -14.62196792	     10.23003171	     -0.46172730	     -5.16927041	     17.33168632	      4.25001512	      0.00000000	     10.51291804	     -4.15801686	     -5.40731679	     -1.14995547	      2.61343102	      1.88964751	      0.00000000	    -25.77320204	      4.90853150	      4.82652932
      9.25000000	      6.50679201	     -5.28076246	     -2.64685117	      2.58636769	      0.93478204	     -0.19031351	    -15.18705515	     10.28301549	     -0.34454520	     -5.31698851	     17.61284996	      4.39505715	      0.00000000	     10.31936713	     -4.16161261	     -6.49845683	      0.50166099	      2.45314908	      2.61877984	      0.00000000	    -25.83383878	      5.08086787	      5.11004273
      9.26000000	      6.49326618	     -5.42985435	     -2.73084313	      2.59508989	      0.93374165	     -0.19102242	    -15.67760301	     10.32204351	     -0.30983276	     -5.51829679	     17.82468116	      4.56025017	      0.00000000	     10.28396190	     -4.12882164	     -7.83558097	      1.66695600	      2.48249201	      3.47142642	      0.00000000	    -25.85238180	      5.26417365	      5.32024285
      9.27000000	      6.49888932	     -5.54384627	     -2.82727289	      2.60390950	      0.93274547	     -0.19176056	    -16.14468448	     10.31670130	     -0.16697902	     -5.82079193	     18.05598556	      4.64138220	      0.00000000	     10.21838845	     -4.05350828	     -8.62834237	      2.51242070	      2.45002034	      3.46838404	      0.00000000	    -25.87971388	      5.39346996	      5.55405072
